<?xml version="1.0" encoding="UTF-8"?>
<svg version="1.1" xmlns="http://www.w3.org/2000/svg" width="512" height="512">
<path d="M0 0 C1.10794922 -0.03867188 1.10794922 -0.03867188 2.23828125 -0.078125 C9.03020336 0.83179758 13.30053971 5.43460936 17.88739014 10.06893921 C18.58939301 10.76626211 19.29139588 11.46358501 20.01467156 12.1820389 C22.36169025 14.51710548 24.69785626 16.86273216 27.03417969 19.20849609 C28.71590591 20.88615678 30.39826959 22.56317867 32.08122253 24.23960876 C36.17370149 28.31982781 40.25910666 32.40702788 44.34110561 36.49772976 C47.65875857 39.82216253 50.97933377 43.1436499 54.30200958 46.46306229 C54.77520597 46.93579897 55.24840236 47.40853566 55.73593803 47.8955977 C56.69727766 48.85597815 57.65862402 49.81635187 58.61997703 50.77671893 C67.62955756 59.77774924 76.62992746 68.78794434 85.62716606 77.80130906 C93.34666884 85.53421903 101.07400947 93.25922354 108.80712891 100.97851562 C117.79016169 109.94549361 126.76830745 118.91731849 135.73870969 127.8969332 C136.69521799 128.85439714 137.65173257 129.81185483 138.60825348 130.76930618 C139.07886498 131.24038051 139.54947649 131.71145485 140.03434895 132.19680416 C143.35044529 135.51549037 146.67000924 138.8306835 149.99092865 142.14454269 C154.45954954 146.60450961 158.92079057 151.07172846 163.37639809 155.5446949 C165.01452754 157.18679731 166.65522678 158.82634065 168.29864311 160.46315193 C170.53794324 162.69427904 172.76783624 164.93440088 174.99554443 167.17709351 C175.65097819 167.8258351 176.30641195 168.47457669 176.98170733 169.14297712 C181.7468345 173.97065854 183.96403831 177.7459511 184.0625 184.6875 C184.09085938 185.59371094 184.11921875 186.49992188 184.1484375 187.43359375 C183.05789018 194.09702272 177.3814451 198.84361807 172.78627014 203.41192627 C172.09217637 204.10984559 171.3980826 204.80776491 170.68295568 205.5268333 C168.36246255 207.85762216 166.03490797 210.18122533 163.70727539 212.50488281 C162.03953469 214.17697176 160.37221212 215.84947785 158.70527649 217.52236938 C154.18117778 222.05985424 149.65069843 226.59091674 145.11863637 231.12044621 C142.28819762 233.94960096 139.45971457 236.78070741 136.63174248 239.61232758 C136.16191664 240.0827486 135.6920908 240.55316963 135.20802782 241.03784584 C134.25353143 241.99355399 133.29903623 242.94926333 132.3445422 243.90497383 C123.40094737 252.85943566 114.45085323 261.80737932 105.49877369 270.7533575 C97.30900178 278.93795613 89.12748217 287.13074763 80.94980258 295.32742682 C72.54919111 303.74740594 64.14304435 312.16182165 55.73086351 320.57024264 C51.00955684 325.28963626 46.29060997 330.01134646 41.57719612 334.73862457 C37.14748678 339.18087593 32.71062937 343.61585983 28.26811028 348.04529953 C26.63728782 349.6737491 25.0090312 351.30477282 23.3835144 352.93851852 C21.16776665 355.16467431 18.94302036 357.38142648 16.7157135 359.5960083 C16.07154498 360.24755111 15.42737645 360.89909392 14.76368767 361.57038045 C10.4023281 365.87932694 6.70998679 368.50918671 0.375 368.625 C-4.55084337 368.50185392 -8.2914604 367.07018614 -12.3125 364.25 C-16.31164784 360.04576766 -17.47304782 356.72619811 -17.625 351 C-17.66238281 350.08734375 -17.69976562 349.1746875 -17.73828125 348.234375 C-16.73727755 341.21816561 -11.87104248 336.37519493 -7.02301025 331.5997467 C-6.39480904 330.96898222 -5.76660783 330.33821773 -5.11937022 329.68833917 C-3.02445806 327.58850788 -0.9190466 325.49954033 1.18652344 323.41040039 C2.69512798 321.90264252 4.20307134 320.39422283 5.71040344 318.88519287 C9.79632157 314.79841494 13.8914152 310.72094493 17.98822689 306.6450913 C22.27105894 302.38102841 26.5453821 298.10845352 30.82061768 293.83677673 C38.91411592 285.75259821 47.01523032 277.67609675 55.11911321 269.60232967 C64.34623337 260.40875566 73.56482413 251.20664933 82.78271055 242.00381863 C101.74150247 223.07637411 120.71097328 204.15966252 139.6875 185.25 C138.03916217 181.00302119 134.87325643 178.17258304 131.69667053 175.03884888 C131.07637842 174.41896461 130.45608631 173.79908035 129.81699747 173.16041172 C127.73434489 171.08149388 125.64463573 169.0098161 123.55493164 166.93798828 C122.06153602 165.45006727 120.56860177 163.96168306 119.07609558 162.47286987 C115.85950368 159.26599572 112.63988072 156.06220663 109.4179554 152.86069107 C104.32414567 147.79866366 99.23847583 142.72851211 94.15415955 137.6569519 C81.52333905 125.06023656 68.88327122 112.47281117 56.23834229 99.89025879 C46.4137406 90.11409527 36.59232988 80.33477938 26.781434 70.54485881 C21.72736983 65.50232444 16.66643675 60.46681845 11.60027134 55.43644357 C8.44984909 52.30520809 5.30569372 49.16773825 2.16325569 46.02849197 C0.70456898 44.57382566 -0.75670408 43.12174755 -2.22073746 41.67246246 C-4.21905245 39.69355607 -6.20789873 37.70558761 -8.19468689 35.71511841 C-8.77600827 35.14389979 -9.35732964 34.57268118 -9.95626682 33.98415291 C-14.6481848 29.25060661 -17.74000029 24.70230103 -17.75 17.8125 C-17.58164581 12.42516581 -16.61681458 9.51082669 -13.3125 5.25 C-8.99230317 1.89964328 -5.46553331 0.1132753 0 0 Z " fill="#000000" transform="translate(87.3125,71.75)"/>
<path d="M0 0 C3.61884596 2.21772941 6.46186198 5.09513917 9.42905009 8.10446417 C10.11980559 8.78897971 10.81056108 9.47349524 11.52224857 10.17875367 C13.82165493 12.46227556 16.10658049 14.75974305 18.39174235 17.05751288 C20.04237922 18.70272672 21.69386521 20.34708903 23.34613383 21.99066412 C27.82205068 26.44836812 32.28524927 30.9186053 36.74571598 35.39176261 C40.94371288 39.5988679 45.14973117 43.79792907 49.35521259 47.99755045 C58.19029998 56.82124552 67.01310976 65.657135 75.83173712 74.49727645 C83.3933161 82.0767311 90.96532923 89.64562895 98.54506266 97.20692694 C107.35611452 105.99655844 116.16062284 114.79266068 124.95483238 123.59914571 C129.60699105 128.25753912 134.26180688 132.91319091 138.92368853 137.56185591 C143.30516017 141.93177193 147.67672891 146.31135915 152.04085314 150.69859755 C153.64383162 152.3068642 155.25022224 153.9117382 156.86025202 155.51294577 C159.05769016 157.69945042 161.24243169 159.89790968 163.42441142 162.0998255 C164.38363716 163.04566692 164.38363716 163.04566692 165.36224121 164.01061624 C170.2195507 168.95435054 172.76336176 173.17943132 173.54677165 180.2301203 C173.18120492 188.39569436 167.8355635 194.15101958 162.29069865 199.61239874 C161.262867 200.64853199 161.262867 200.64853199 160.21427107 201.70559722 C157.92841181 204.00500972 155.62860651 206.28992687 153.32850993 208.575091 C151.68166622 210.22571973 150.03568157 211.87720593 148.39049113 213.52948248 C143.92861765 218.00530198 139.45429005 222.46847466 134.97719777 226.92906463 C130.76699036 231.1268162 126.56512962 235.33289495 122.36283086 239.53856125 C114.036885 247.87037876 105.70097185 256.19215326 97.35975993 264.50868475 C89.27112019 272.57339418 81.19096188 280.64648394 73.11952555 288.72841132 C64.3217854 297.5375661 55.51932068 306.3419496 46.70865774 315.13818103 C42.04767982 319.79161852 37.38854419 324.4468579 32.73430598 329.10703719 C28.35978282 333.48633086 23.97789141 337.85811629 19.59018672 342.2242018 C17.98076508 343.828057 16.3738859 345.4344681 14.7697407 347.04360068 C12.58062405 349.238669 10.38249413 351.42429587 8.18181193 353.60776007 C7.23160125 354.56698582 7.23160125 354.56698582 6.2621944 355.54558986 C1.60342384 360.13824235 -2.94524525 363.70317134 -9.76572835 363.7926203 C-15.19850801 363.61261857 -18.83436673 361.85247577 -22.89072835 358.2926203 C-26.43754304 354.10919786 -27.70186263 350.76972639 -27.89072835 345.2926203 C-26.27056154 332.53380666 -13.19222077 323.45704358 -4.51011312 314.79847968 C-3.05075612 313.33940508 -1.59161995 311.8801096 -0.13268697 310.42061102 C3.81081819 306.47681997 7.75739015 302.53611105 11.70453489 298.59596312 C15.83563315 294.47113311 19.96388339 290.34345469 24.0924412 286.21608222 C31.90296545 278.40866106 39.71603444 270.60379167 47.530029 262.79984391 C56.42922101 253.91184479 65.32556009 245.0209924 74.22166491 236.12990344 C92.51436912 217.84764047 110.81063941 199.56894981 129.10927165 181.2926203 C127.45980772 177.04210032 124.28911358 174.20630854 121.11171305 171.06801093 C120.49071537 170.44671553 119.8697177 169.82542014 119.22990191 169.18529761 C117.14492311 167.10170932 115.05288164 165.02535931 112.96083415 162.9488703 C111.46582294 161.4576968 109.971266 159.96606776 108.47713053 158.47401679 C105.25732121 155.26053371 102.03442942 152.05018547 98.80916178 148.84218085 C93.71184882 143.77187488 88.62213911 138.69398319 83.53358805 133.61488593 C72.73137118 122.83488549 61.92074804 112.06333295 51.10927165 101.2926203 C39.43836012 89.66571295 27.76887426 78.03739708 16.10911715 66.39930212 C11.04790136 61.34806724 5.98184414 56.30175346 0.91206706 51.259112 C-2.23777242 48.12416538 -5.38348613 44.98510406 -8.52808034 41.84489691 C-9.989679 40.3870502 -11.45300939 38.93093736 -12.91817129 37.47667181 C-14.91446214 35.49476416 -16.90453645 33.50681638 -18.89316976 31.51722968 C-19.47740398 30.94018538 -20.0616382 30.36314108 -20.66357648 29.7686106 C-25.5657083 24.8411615 -27.54606546 21.30076585 -27.89072835 14.2926203 C-26.7868013 8.92937471 -24.98140739 4.05162266 -20.89072835 0.2926203 C-13.65198744 -3.61124216 -7.26295084 -3.77146371 0 0 Z " fill="#000000" transform="translate(268.89072835445404,75.70737969875336)"/>
</svg>
