<svg width="202" height="149" viewBox="0 0 202 149" fill="none" xmlns="http://www.w3.org/2000/svg">
<path d="M39.4507 0.36084C37.9285 0.367444 36.4409 1.13472 35.1723 2.56756C33.9037 4.00041 32.9099 6.03581 32.3141 8.42146C13.5463 10.2483 -0.0583914 13.3205 0.000188451 15.7218C0.0547284 18.1059 13.5584 19.1518 32.1747 18.2126C32.8211 21.1781 34.0654 23.6482 35.6854 25.1861H32.6635V34.6194H28.9669C28.7349 34.6189 28.5051 34.6963 28.2907 34.8472C28.0763 34.9981 27.8814 35.2196 27.7173 35.4988C27.5531 35.7781 27.4229 36.1097 27.334 36.4747C27.2452 36.8397 27.1994 37.231 27.1994 37.6262V44.3485C27.1994 46.0102 27.9893 47.3553 28.9649 47.3553H53.8432C60.1112 49.8668 60.8122 53.6958 65.5067 60.7037C64.7391 67.9731 63.6079 75.9098 62.7231 82.7698V141.162C62.7231 143.071 63.1684 144.902 63.9611 146.252C64.7538 147.602 65.8289 148.361 66.9499 148.361C68.071 148.361 69.1461 147.602 69.9388 146.252C70.7314 144.902 71.1768 143.071 71.1768 141.162V112.927C71.0798 89.1894 73.3301 79.591 81.0849 61.2163L83.0342 59.6751C83.0342 73.9385 88.8235 74.7952 96.9883 77.9774H90.8556C88.9891 77.9774 87.4741 80.5577 87.4741 83.74V118.143C87.4741 121.322 88.9891 123.902 90.8556 123.902H111.144C113.011 123.902 114.526 121.322 114.526 118.143V83.74C114.526 80.5577 113.011 77.9809 111.144 77.9809H105.018C113.181 74.7883 118.966 73.9351 118.966 59.6751L120.915 61.2163C130.726 78.5073 130.823 90.2765 130.823 112.924V141.159C130.823 143.068 131.269 144.899 132.061 146.249C132.854 147.599 133.929 148.357 135.05 148.357C136.171 148.357 137.246 147.599 138.039 146.249C138.832 144.899 139.277 143.068 139.277 141.159V82.7698C138.241 75.2321 137.132 67.3332 136.085 59.5065C140.527 52.0926 142.349 50.4241 148.116 47.3553H173.035C173.503 47.3553 173.952 47.0386 174.283 46.4747C174.615 45.9108 174.801 45.146 174.801 44.3485V37.6262C174.801 36.8287 174.615 36.0639 174.283 35.5C173.952 34.9361 173.503 34.6194 173.035 34.6194H169.336V25.1861H166.315C167.936 23.6492 169.181 21.1759 169.825 18.2126C188.442 19.1518 201.945 18.1059 202 15.7218C202.058 13.3205 188.454 10.2517 169.686 8.42146C169.111 6.1213 168.165 4.14531 166.958 2.72174C165.751 1.29816 164.332 0.485088 162.866 0.376437C161.399 0.267787 159.944 0.867989 158.669 2.10772C157.395 3.34744 156.352 5.17611 155.661 7.38249C136.861 6.40889 123.133 7.44442 123.054 9.84575C122.996 12.2299 136.417 15.2814 155.025 17.1117C155.298 18.8106 155.767 20.3998 156.405 21.7862C157.042 23.1726 157.836 24.3285 158.74 25.1861H155.718V34.6194C136.661 34.5437 121.911 18.2332 101 17.5623C80.794 18.2917 63.8725 34.6194 46.2823 34.6194V25.1861H43.2604C44.1637 24.3285 44.9576 23.1726 45.5954 21.7862C46.2333 20.3998 46.7023 18.8106 46.9752 17.1117C65.5834 15.2814 79.0043 12.2264 78.9457 9.84575C78.8669 7.44442 65.139 6.40545 46.3389 7.38249C45.674 5.2565 44.6813 3.47957 43.4675 2.24293C42.2538 1.00629 40.8651 0.353338 39.4507 0.36084ZM101 86.4131C105.741 86.4131 109.638 93.0494 109.638 101.124C109.638 109.198 105.741 115.835 101 115.835C96.2591 115.835 92.3585 109.195 92.3585 101.12C92.3585 93.046 96.2571 86.4131 101 86.4131ZM101 95.0448C99.0002 95.0448 97.4307 97.7145 97.4307 101.12C97.4307 104.526 99.0002 107.196 101 107.196C103 107.196 104.565 104.526 104.565 101.12C104.565 97.7145 103 95.0448 101 95.0448Z" fill="#EBE8E8"/>
</svg>
